<svg id="page-claim" viewBox="0 0 925.984 70"><path d="M105.001,0L77,70H58.001l-5.5-13.751L47,70H28.001L0,0h17.126l20.428,51.339l6.439-16.359L30,0h17.126l5.428,13.572L57.984,0h17.017L61.064,34.842l6.491,16.499L87.984,0H105.001z"/><path d="M123,70h-15V0h15V70z"/><path d="M189,70h-15V37.9h-30V70h-15V0h50c2.733,0,5.083,0.984,7.05,2.95C188.015,4.917,189,7.267,189,10v11c0,2.734-0.984,5.084-2.95,7.05C184.083,30.017,181.732,31,179,31c2.733,0,5.083,0.984,7.05,2.95c1.966,1.967,2.95,4.317,2.95,7.05V70z M174,24V13.9h-30V24H174z"/><path d="M279.998,60c0,2.734-0.984,5.084-2.95,7.05c-1.967,1.967-4.317,2.95-7.05,2.95h-50V56.1h45V37.9h-35c-2.734,0-5.084-0.979-7.05-2.942c-1.967-1.961-2.95-4.305-2.95-7.031V9.974c0-2.725,0.983-5.069,2.95-7.031C224.914,0.981,227.264,0,229.998,0h50v13.9h-45V24h35c2.733,0,5.083,0.984,7.05,2.95c1.966,1.967,2.95,4.317,2.95,7.05V60z"/><path d="M300.997,70h-15V0h15V70z"/><path d="M366.996,70h-15l-30-41.997V70h-15V0h15.031l29.969,41.956V0h15V70z"/><path d="M432.996,60c0,2.734-0.984,5.084-2.951,7.05c-1.967,1.967-4.316,2.95-7.049,2.95h-50V0h50c2.732,0,5.082,0.984,7.049,2.95c1.967,1.967,2.951,4.317,2.951,7.05V60z M417.996,56.1V13.9h-30v42.2H417.996z"/><path d="M523.994,70h-50c-2.734,0-5.084-0.983-7.05-2.95c-1.968-1.965-2.95-4.315-2.95-7.05V10c0-2.733,0.982-5.083,2.95-7.05c1.966-1.966,4.315-2.95,7.05-2.95h50v13.9h-45v42.2h30V37.9h-20V24h35V70z"/><path d="M589.992,60c0,2.734-0.984,5.084-2.949,7.05c-1.967,1.967-4.318,2.95-7.051,2.95h-40c-2.734,0-5.084-0.983-7.049-2.95c-1.969-1.965-2.951-4.315-2.951-7.05V10c0-2.733,0.982-5.083,2.951-7.05c1.965-1.966,4.314-2.95,7.049-2.95h40c2.732,0,5.084,0.984,7.051,2.95c1.965,1.967,2.949,4.317,2.949,7.05V60z M574.992,56.1V13.9h-30v42.2H574.992z"/><path d="M655.992,70h-15V37.9h-30V70h-15V0h15v24h30V0h15V70z"/><path d="M716.99,37.9h-40V70h-15V10c0-2.733,0.982-5.083,2.951-7.05C666.906,0.984,669.256,0,671.99,0h45v13.9h-40V24h40V37.9z"/><path d="M777.988,70h-45c-2.734,0-5.084-0.983-7.049-2.95c-1.969-1.965-2.951-4.315-2.951-7.05V10c0-2.733,0.982-5.083,2.951-7.05c1.965-1.966,4.314-2.95,7.049-2.95h45v13.9h-40V24h40v13.9h-40v18.2h40V70z"/><path d="M838.988,70h-45c-2.734,0-5.084-0.983-7.051-2.95c-1.967-1.965-2.949-4.315-2.949-7.05V0h15v56.1h40V70z"/><path d="M904.986,60c0,2.734-0.984,5.084-2.951,7.05c-1.967,1.967-4.316,2.95-7.049,2.95h-50V0h50c2.732,0,5.082,0.984,7.049,2.95c1.967,1.967,2.951,4.317,2.951,7.05V60z M889.986,56.1V13.9h-30v42.2H889.986z"/><path d="M925.984,70h-15V56h15V70z"/></svg>