<?xml version="1.0" encoding="utf-8"?>
<!-- Generator: Adobe Illustrator 16.0.4, SVG Export Plug-In . SVG Version: 6.00 Build 0)  -->
<!DOCTYPE svg PUBLIC "-//W3C//DTD SVG 1.1//EN" "http://www.w3.org/Graphics/SVG/1.1/DTD/svg11.dtd">
<svg version="1.1" id="Ebene_1" xmlns="http://www.w3.org/2000/svg" xmlns:xlink="http://www.w3.org/1999/xlink" x="0px" y="0px"
	 width="1024px" height="1024px" viewBox="0 0 1024 1024" enable-background="new 0 0 1024 1024" xml:space="preserve">
<linearGradient id="SVGID_1_" gradientUnits="userSpaceOnUse" x1="-95.5" y1="-211.0298" x2="-95.5002" y2="784.0308" gradientTransform="matrix(1 0 0 -1 607.5 798.5)">
	<stop  offset="0" style="stop-color:#046005"/>
	<stop  offset="1" style="stop-color:#046005"/>
</linearGradient>
<path fill="url(#SVGID_1_)" d="M512,14.469c-191.425,0-356.221,33.066-511.999,133.345c75.307,54.028,97.552,213.145,83.028,322.044
	C62.602,623.02,107.971,752.129,206.241,862.646c53.593,60.274,122.472,104.19,196.442,127.86
	c36.481,11.674,73.146,19.023,109.315,19.023c36.169,0,72.835-7.351,109.316-19.023c73.969-23.668,142.85-67.586,196.441-127.86
	c98.271-110.519,143.64-239.627,123.213-392.788c-14.521-108.899,7.723-268.017,83.028-322.044
	C868.22,47.536,703.422,14.469,512,14.469z"/>
<path fill="#FFFFFF" d="M512,58.002c-92.646,0-178.354,7.881-258.993,27.708c-63.787,15.683-124.908,38.915-184.426,71.734
	c8.284,11.948,15.607,24.939,22.019,38.722v0.169c37.188,79.922,46.811,193.966,35.451,279.135
	c-9.341,70.043-3.72,134.333,15.396,193.513c19.105,59.146,52.031,113.879,97.271,164.758l0,0l0.01,0.012
	c7.142,8.033,14.149,15.354,20.999,21.959c6.899,6.652,14.455,13.373,22.629,20.144c39.992,33.116,85.667,58,133.591,73.336
	c16.656,5.325,33.1,9.629,49.164,12.526c15.224,2.752,30.843,4.285,46.887,4.285s31.665-1.531,46.887-4.285
	c16.065-2.899,32.507-7.201,49.162-12.526l0.174-0.175l0.012-0.004l0.031,0.107c8.58-2.752,17.752-6.103,27.479-10.037
	c9.632-3.893,18.669-7.924,27.082-12.076c45.614-22.514,87.577-54.037,122.456-93.264c45.24-50.881,78.167-105.609,97.271-164.76
	c19.115-59.179,24.737-123.465,15.396-193.511l-0.005-0.029c-2.205-16.571-3.638-34.234-4.229-52.519
	c-0.604-18.44-0.385-37.112,0.7-55.522c4.475-76.014,23.786-155.102,61.244-209.822c-59.595-32.892-120.794-56.166-184.669-71.87
	C690.354,65.881,604.646,58.002,512,58.002z"/>
<linearGradient id="SVGID_2_" gradientUnits="userSpaceOnUse" x1="-95.3442" y1="-152.8389" x2="-95.3446" y2="725.7715" gradientTransform="matrix(1 0 0 -1 607.5 798.5)">
	<stop  offset="0" style="stop-color:#046005"/>
	<stop  offset="1" style="stop-color:#046005"/>
</linearGradient>
<path fill="url(#SVGID_2_)" d="M512,72.728c-46.08,0-90.191,1.935-132.504,6.304c-42.404,4.376-83.321,11.191-122.981,20.944
	c-31.356,7.709-61.992,17.249-92.028,28.865c-25.252,9.767-50.206,21.06-74.946,34.027c5.332,8.842,10.123,17.887,14.404,27.087
	l1.379,2.968v0.27c4.842,10.708,9.246,22.064,13.223,33.921c4.348,12.97,8.102,26.258,11.283,39.7
	c16.417,69.395,19.167,147.621,10.773,210.559c-4.518,33.882-5.413,66.452-2.86,97.78c2.541,31.145,8.492,60.897,17.679,89.346
	c9.188,28.449,21.756,55.926,37.513,82.49c15.765,26.578,34.752,52.217,56.769,76.977l0.014,0.019
	c1.349,1.516,2.31,2.592,2.876,3.217c3.057,3.365,1.709,1.943,2.861,3.188c4.64,5.013,9.462,9.933,14.453,14.746l0.23,0.172
	l0.003,0.003l-0.024,0.024c0.712,0.687,1.583,1.517,2.614,2.486c0.708,0.666,1.667,1.555,2.897,2.688
	c4.931,4.541,10.303,9.22,16.101,14.019l-0.002,0.002l0.013,0.008c5.667,4.691,11.166,9.016,16.488,12.963
	c5.461,4.047,11.166,8.041,17.102,11.967c29.786,19.718,61.9,35.123,95.102,45.75c8.241,2.638,16.241,4.97,23.941,6.945
	c7.825,2.006,15.605,3.729,23.324,5.123c7.204,1.301,14.496,2.314,21.871,3.002c7.408,0.688,14.885,1.051,22.429,1.051
	c7.542,0,15.022-0.362,22.428-1.051c7.373-0.688,14.667-1.701,21.872-3.002c7.716-1.396,15.496-3.117,23.324-5.123
	c6.624-1.699,13.465-3.666,20.495-5.856l0.225-0.229l3.445-1.088l0.014-0.004l8.369-2.644c5.48-1.93,11.505-4.217,18.066-6.871
	l-0.009-0.02c1.937-0.781,3.229-1.309,3.893-1.586c1.837-0.766,3.114-1.299,3.829-1.604c6.443-2.752,12.579-5.562,18.375-8.424
	h0.003l0.004-0.004c5.971-2.947,12.057-6.162,18.245-9.639c5.908-3.316,11.831-6.859,17.758-10.619
	c30.043-19.053,57.777-42.412,81.96-69.611c22.02-24.76,41-50.399,56.77-76.979c15.756-26.564,28.326-54.041,37.514-82.488
	s15.141-58.201,17.683-89.347c2.552-31.328,1.657-63.898-2.859-97.78l-0.005-0.03l-0.014-0.107c-0.486-3.646-0.8-6.062-0.938-7.25
	c-0.184-1.578-0.442-4.008-0.784-7.314c-1.289-12.539-2.166-25.693-2.605-39.286l-0.015-0.323c-0.076-2.396-0.144-5.039-0.196-7.919
	c-0.051-2.494-0.084-5.165-0.104-7.994c-0.096-13.786,0.238-27.389,1.016-40.61l0.004-0.064c0.646-10.973,1.586-21.928,2.823-32.777
	c1.26-11.071,2.82-22.032,4.678-32.801c8.685-50.264,24.204-98.713,47.511-137.868c-24.798-13.014-49.812-24.343-75.125-34.137
	c-30.074-11.64-60.754-21.197-92.153-28.916c-39.661-9.752-80.577-16.567-122.982-20.944C602.189,74.662,558.077,72.728,512,72.728
	L512,72.728z M512,79.105v0.025c23.209,0,45.678,0.477,67.388,1.489c21.918,1.022,43.399,2.59,64.469,4.765
	c21.021,2.17,41.719,4.952,62.117,8.406c20.345,3.445,40.329,7.553,59.984,12.389c15.534,3.819,30.929,8.104,46.202,12.887
	c15.308,4.794,30.364,10.044,45.176,15.778c12.432,4.809,24.904,10.048,37.434,15.737c10.531,4.781,20.908,9.792,31.137,15.038
	c-15.45,27.412-27.317,58.852-35.901,92.029c-1.823,7.061-3.473,14.04-4.944,20.921c-1.511,7.055-2.88,14.139-4.103,21.231
	l-0.004,0.023c-1.308,7.572-2.497,15.512-3.571,23.771l-0.604,4.678c-0.159,1.299-0.343,2.857-0.548,4.666v0.026v0.007h-0.004
	c-0.896,7.87-1.642,15.808-2.231,23.782c-0.091,1.247-0.196,2.765-0.319,4.626h-0.004c-0.083,1.264-0.182,2.837-0.287,4.656
	l-0.002,0.064l-0.004,0.065c-0.549,9.302-0.879,18.963-0.988,28.895c-0.022,1.896-0.039,3.824-0.039,5.779
	c-0.008,1.925-0.004,3.854,0.008,5.779l0.005,0.555c0.014,1.931,0.036,3.752,0.058,5.445v0.026l0.019,1.066l0.02,1.046l0.013,0.487
	v0.023c0.039,2.128,0.086,4.044,0.129,5.739l0.033,1.045l0.032,1.021l0.004,0.163v0.025l0.011,0.323
	c0.332,10.079,0.871,19.705,1.614,28.807c0.052,0.641,0.216,2.459,0.495,5.445c0.207,2.282,0.376,4.063,0.511,5.376l0.012,0.109
	c0.29,2.798,0.493,4.712,0.609,5.797l0.091,0.814v0.027l0.088,0.715l0.002,0.034c0.033,0.297,0.097,0.682,0.364,2.78
	c0.249,1.934,0.433,3.335,0.595,4.57l0.016,0.108l0.004,0.03c2.231,16.739,3.57,33.137,4.031,49.197
	c0.463,15.958,0.045,31.711-1.219,47.258c-1.254,15.317-3.341,30.303-6.246,44.961c-2.918,14.706-6.635,29.014-11.137,42.936
	c-4.518,13.998-9.866,27.748-16.016,41.25c-6.138,13.478-13.119,26.789-20.919,39.939c-7.796,13.143-16.361,26.014-25.667,38.617
	c-9.306,12.606-19.441,25.059-30.38,37.356c-17.115,19.248-36.047,36.551-56.334,51.725c-4.162,3.115-8.162,5.992-11.987,8.634
	c-3.829,2.635-7.923,5.34-12.281,8.102l-0.124,0.076l-0.008,0.004v0.002c-4.301,2.725-8.448,5.25-12.434,7.57l-2.461,1.408
	c-1.042,0.596-1.849,1.055-2.434,1.379v0.004l-0.007,0.004c-4.67,2.623-8.993,4.955-12.967,6.994l-2.506,1.26l0.005,0.012
	l-2.103,1.039l-0.366,0.183l-0.016,0.006c-4.314,2.131-8.575,4.133-12.777,5.998c-0.312,0.137-0.657,0.28-2.624,1.141
	c-0.621,0.271-1.503,0.65-2.64,1.135l-0.011,0.007c-0.263,0.108-1.021,0.428-2.349,0.979l-0.669,0.277l-0.735,0.305l-0.021,0.012
	l-2.35,0.957l-0.696,0.279l-0.77,0.313l-0.03,0.011l-4.729,1.912c-2.854,1.12-5.649,2.188-8.388,3.192
	c-2.349,0.867-1.601,0.604-2.345,0.873l-2.117,0.748l-0.004-0.012l-8.369,2.645l-0.015,0.002l-3.448,1.09l-1.494,0.474l-0.226,0.223
	c-2.854,0.881-5.765,1.746-8.729,2.597c-3.855,1.104-7.182,2.016-9.923,2.719c-3.339,0.854-7.164,1.762-11.501,2.717
	c-4.221,0.93-8.021,1.701-11.366,2.307c-3.421,0.617-6.949,1.179-10.598,1.683c-3.657,0.502-7.235,0.922-10.726,1.242
	c-3.527,0.329-7.16,0.584-10.89,0.762c-3.39,0.162-7.04,0.242-10.964,0.242c-3.923,0-7.576-0.08-10.965-0.242
	c-3.729-0.178-7.355-0.433-10.887-0.762c-3.492-0.32-7.071-0.738-10.725-1.242c-3.646-0.506-7.181-1.064-10.596-1.683
	c-3.348-0.604-7.15-1.377-11.373-2.307c-4.333-0.955-8.161-1.859-11.502-2.717c-3.689-0.947-7.549-2.01-11.568-3.176
	c-3.851-1.117-7.854-2.347-11.998-3.673c-23.508-7.521-46.462-17.479-68.402-29.702c-4.185-2.332-8.411-4.795-12.672-7.39
	c-4.167-2.535-8.319-5.168-12.444-7.899l-0.01-0.006v-0.003c-4.348-2.877-8.434-5.688-12.25-8.426
	c-1.163-0.836-1.968-1.418-2.312-1.666l-2.257-1.67l0,0l-0.003-0.006c-3.72-2.758-7.578-5.744-11.562-8.949
	c-0.985-0.795-1.735-1.401-2.221-1.797l-0.031-0.026l-0.006-0.007l-0.169-0.137l-0.006-0.004l-0.151-0.127l-0.024-0.021
	l-0.016-0.014l-0.019-0.018l-0.03-0.025l-0.027-0.021l-0.012-0.008l-0.148-0.125l-0.036-0.026l-1.753-1.453l-0.149-0.125
	l-0.005-0.004l-0.009-0.011c-4.048-3.354-7.894-6.651-11.526-9.893c-2.007-1.785-1.59-1.398-2.125-1.881
	c-0.163-0.146-0.52-0.482-2.048-1.891l-0.003-0.007l-1.645-1.518c-0.528-0.49-0.935-0.867-1.202-1.123l-1.053-0.994l-1.389-1.391
	l-0.003-0.004l-0.307-0.308l-0.366-0.272c-3.397-3.285-6.723-6.625-9.965-10.019h-0.024c-0.501-0.522-0.27-0.297-1.933-2.062
	c-1.589-1.691-1.631-1.728-1.935-2.052l-0.005-0.01l-0.005-0.006l-0.14-0.188l-0.004-0.002l-0.013,0.012l-0.268-0.312
	c-0.201-0.233-0.552-0.647-2.38-2.664c-0.208-0.231-0.796-0.889-1.778-1.989l-0.497-0.56l-0.542-0.606l-0.009,0.006l-0.019-0.025
	l0.005-0.008c-10.939-12.301-21.075-24.75-30.379-37.357c-9.305-12.604-17.869-25.475-25.666-38.616
	c-7.801-13.148-14.783-26.463-20.919-39.939c-6.149-13.502-11.499-27.25-16.02-41.252c-4.497-13.92-8.215-28.229-11.132-42.935
	c-2.908-14.655-4.999-29.643-6.246-44.962c-1.267-15.544-1.682-31.297-1.222-47.256c0.462-16.061,1.8-32.458,4.032-49.198
	c6.112-45.834,6.393-99.606-0.106-152.226c-1.263-10.235-2.789-20.448-4.577-30.564c-1.782-10.081-3.837-20.087-6.167-29.948v-0.025
	l-0.023-0.097l-0.006,0.001c-2.28-9.635-4.905-19.352-7.884-29.097c-0.658-2.156-1.241-4.025-1.747-5.599
	c-0.587-1.833-1.193-3.681-1.815-5.539l-0.006,0.001v-0.016c-2.934-8.754-6.069-17.174-9.402-25.193
	c-0.373-0.899-1.044-2.464-2.007-4.685c-0.6-1.385-1.087-2.503-1.462-3.354v-0.321l-0.601-1.29l-1.38-2.965
	c-3.168-6.811-6.59-13.504-10.274-20.058c-0.303-0.537-0.641-1.131-1.019-1.789c10.179-5.214,20.509-10.197,30.991-14.951
	c12.497-5.67,24.939-10.894,37.339-15.688c14.793-5.72,29.832-10.961,45.119-15.749c15.25-4.774,30.625-9.053,46.135-12.867
	c19.658-4.833,39.646-8.941,59.986-12.389c20.398-3.454,41.096-6.236,62.119-8.406c21.065-2.174,42.547-3.743,64.465-4.765
	C466.686,79.587,489.14,79.105,512,79.105z"/>
<g>
	<g>
		<path fill="#333333" d="M260.389,670.555l30.012-10.831c0.426,1.058,0.791,2.003,1.09,2.831c4.181,11.584,3.74,22.228-1.34,31.938
			c-5.08,9.705-13.855,16.787-26.308,21.281c-14.926,5.387-27.573,5.163-37.945-0.683c-10.372-5.848-17.662-14.565-21.845-26.151
			c-4.376-12.13-4.27-23.566,0.299-34.306c4.578-10.715,13.27-18.406,26.089-23.033c11.502-4.149,22.428-4.137,32.733,0.066
			l-3.318-9.193l10.509-3.795l9.788,27.117l-10.511,3.791c-3.608-3.846-8.594-6.625-14.908-8.326
			c-6.321-1.727-12.715-1.434-19.215,0.914c-9.013,3.252-15.036,8.883-18.042,16.857c-3.032,7.961-2.991,16.256,0.1,24.82
			c3.56,9.862,9.349,16.586,17.395,20.229c8.037,3.623,16.244,3.91,24.626,0.887c6.561-2.367,11.759-6.303,15.577-11.826
			c3.828-5.502,5.093-11.383,3.822-17.631l-14.883,5.373L260.389,670.555L260.389,670.555z M308.119,651.244
			c-4.32-11.967-4.036-23.423,0.892-34.312c4.929-10.892,13.673-18.622,26.249-23.159c12.697-4.582,24.487-4.26,35.396,0.913
			c10.887,5.18,18.543,13.84,22.93,25.989c4.465,12.371,4.085,24.07-1.131,35.039c-5.233,10.998-14.115,18.736-26.649,23.263
			c-7.999,2.887-16.017,3.629-24.115,2.245c-8.084-1.405-15.022-4.901-20.846-10.512
			C315.02,665.099,310.781,658.617,308.119,651.244L308.119,651.244z M321.73,646.401c3.272,9.072,8.669,15.71,16.162,19.917
			c7.521,4.221,15.591,4.766,24.219,1.651c8.524-3.076,14.427-8.729,17.669-16.998c3.223-8.26,3.279-16.725,0.138-25.434
			c-3.167-8.771-8.643-15.193-16.445-19.242c-7.781-4.059-15.905-4.559-24.369-1.504c-8.426,3.039-14.23,8.521-17.421,16.426
			C318.514,629.113,318.523,637.512,321.73,646.401L321.73,646.401z M429.935,642.69l-9.376,3.382l3.729,10.33l31.573-11.396
			l-3.729-10.327l-9.74,3.516l-10.086-27.947l35.905-12.959l10.086,27.949l-9.681,3.489l3.728,10.329l31.573-11.394l-3.729-10.328
			l-9.438,3.404l-22.328-61.865l9.438-3.406l-3.729-10.33l-31.571,11.396l3.727,10.327l9.681-3.491l8.521,23.611l-35.906,12.961
			l-8.521-23.613l9.74-3.516l-3.728-10.329l-31.571,11.394l3.729,10.328l9.376-3.383L429.935,642.69L429.935,642.69z
			 M522.459,609.299L500.13,547.43l-10.449,3.771l-3.728-10.328l64.037-23.109l8.966,24.848l-10.205,3.687l-5.241-14.521
			l-30.923,11.159l8.822,24.444l26.647-9.617l3.721,10.308l-26.65,9.62l9.789,27.116l10.57-3.812l3.727,10.328l-33.476,12.081
			l-3.729-10.327L522.459,609.299L522.459,609.299z M597.363,582.265l-22.327-61.868l-10.673,3.853l-3.729-10.328l68.59-24.755
			l8.969,24.85l-10.205,3.684l-5.24-14.521l-35.237,12.718l8.859,24.543l30.66-11.064l3.727,10.328l-30.659,11.064l9.744,26.993
			l35.237-12.717l-5.415-15.008l10.205-3.684l9.143,25.334l-68.59,24.753l-3.727-10.326L597.363,582.265L597.363,582.265z
			 M678.205,553.088l-10.673,3.854l3.727,10.327l60.513-21.839l-13.859-38.396l-11.625,4.194l10.134,28.068l-25.273,9.123
			l-22.333-61.87l10.145-3.662l-3.729-10.328l-33.757,12.186l3.729,10.328l10.671-3.854L678.205,553.088L678.205,553.088z
			 M748.371,527.767L726.04,465.9l-11.219,4.049l-3.729-10.33l31.916-11.519c8.83-3.186,15.772-5.189,20.883-6.004
			c5.089-0.806,10.449-0.405,16.081,1.178c5.611,1.592,10.779,4.693,15.479,9.337c4.667,4.633,8.308,10.527,10.896,17.696
			c2.938,8.142,4.213,15.668,3.812,22.61c-0.398,6.942-2.159,12.66-5.264,17.122c-3.1,4.483-7.314,8.337-12.642,11.587
			c-5.335,3.23-12.455,6.465-21.347,9.672l-30.033,10.84l-3.729-10.325L748.371,527.767L748.371,527.767z M760.826,523.27
			l6.521-2.354c7.287-2.631,12.88-5.151,16.805-7.601c3.924-2.443,6.965-5.306,9.092-8.547c2.142-3.267,3.319-7.422,3.542-12.515
			c0.222-5.094-0.768-10.62-2.938-16.635c-2.588-7.168-6.261-12.709-11.055-16.61c-4.771-3.908-9.774-5.766-14.963-5.632
			c-5.208,0.164-12.627,1.994-22.269,5.472l-7.068,2.553L760.826,523.27z"/>
		<path fill="#333333" d="M317.888,522.469l-14.175-39.271l-6.773,2.444l-2.367-6.558l21.429-7.734l2.367,6.557l-6.44,2.321
			l14.175,39.273l16.041-5.791l-6.43-17.815l7.379-2.662l8.799,24.37l-38.412,13.863l-2.366-6.555L317.888,522.469L317.888,522.469z
			 M367.393,491.41c-2.026-5.617-1.843-10.9,0.571-15.854c2.416-4.94,6.306-8.377,11.652-10.309
			c5.246-1.892,10.398-1.746,15.436,0.459c5.047,2.188,8.612,6.147,10.677,11.869c2.064,5.721,1.868,11.05-0.601,15.967
			c-2.471,4.915-6.336,8.33-11.608,10.234c-5.424,1.958-10.628,1.784-15.609-0.499C372.93,500.994,369.426,497.041,367.393,491.41
			L367.393,491.41z M374.953,488.683c1.294,3.585,3.488,6.121,6.568,7.611c3.067,1.494,6.231,1.646,9.472,0.475
			c3.291-1.187,5.623-3.337,7.007-6.468c1.384-3.129,1.433-6.459,0.156-9.994c-1.284-3.561-3.479-6.096-6.576-7.595
			c-3.08-1.488-6.236-1.657-9.45-0.498c-3.367,1.215-5.718,3.4-7.054,6.542C373.744,481.912,373.7,485.211,374.953,488.683
			L374.953,488.683z M365.089,459.419c-0.41-1.132-0.363-2.252,0.163-3.372c0.507-1.128,1.352-1.896,2.507-2.313
			c1.158-0.418,2.284-0.358,3.397,0.154c1.106,0.529,1.873,1.358,2.289,2.517c0.428,1.182,0.373,2.32-0.146,3.422
			c-0.537,1.094-1.369,1.846-2.524,2.262c-1.131,0.408-2.252,0.364-3.385-0.159C366.274,461.417,365.506,460.578,365.089,459.419
			L365.089,459.419z M378.715,454.5c-0.397-1.106-0.35-2.213,0.13-3.345c0.496-1.123,1.346-1.91,2.54-2.341
			c1.158-0.418,2.295-0.364,3.406,0.18c1.121,0.525,1.884,1.354,2.291,2.486c0.417,1.157,0.362,2.295-0.167,3.401
			c-0.514,1.115-1.36,1.872-2.516,2.289c-1.171,0.423-2.317,0.386-3.41-0.151C379.887,456.502,379.133,455.659,378.715,454.5
			L378.715,454.5z M439.577,478.771l-14.314-39.66l-6.594,2.379l-2.297-6.363l13.743-4.959l7.257,20.106
			c3.045-5.009,6.507-8.22,10.376-9.615c2.403-0.867,4.564-1.082,6.48-0.64c1.932,0.438,3.463,1.381,4.622,2.823
			c1.161,1.441,2.31,3.744,3.45,6.905l6.649,18.422l6.209-2.241l2.296,6.362l-13.371,4.826l-8.044-22.291
			c-0.999-2.766-1.754-4.582-2.256-5.448c-0.513-0.862-1.282-1.455-2.284-1.778c-1.014-0.315-2.048-0.276-3.127,0.111
			c-2.765,0.998-5.72,3.837-8.858,8.514l7.207,19.965l6.337-2.287l2.295,6.363l-20.078,7.248l-2.297-6.365L439.577,478.771
			L439.577,478.771z M498.839,423.367l1.59,4.409c3.392-4.973,6.982-8.143,10.775-9.511c2.366-0.853,4.526-0.995,6.463-0.447
			c1.944,0.562,3.459,1.572,4.521,3.02c1.06,1.447,2.146,3.732,3.27,6.842l6.417,17.779l6.145-2.218l2.299,6.364l-13.29,4.798
			l-8.608-23.847c-0.994-2.751-2.056-4.401-3.195-4.949c-1.123-0.539-2.294-0.597-3.503-0.16c-3.16,1.141-6.189,3.979-9.062,8.503
			l7.042,19.514l6.288-2.269l2.293,6.363l-19.85,7.164l-2.296-6.362l6.401-2.312l-8.564-23.729l-6.4,2.311l-2.297-6.364
			L498.839,423.367L498.839,423.367z M594.464,411.507l-30.66,11.066c1.659,3.191,3.981,5.437,6.943,6.72
			c2.954,1.302,6.158,1.323,9.603,0.08c4.99-1.801,8.223-5.248,9.69-10.312l7.331,0.506c-0.907,3.93-2.729,7.262-5.459,9.991
			c-2.736,2.73-5.9,4.745-9.486,6.04c-5.582,2.013-10.965,1.996-16.179-0.06c-5.202-2.047-8.874-6.026-11.005-11.926
			c-2.021-5.606-1.752-10.904,0.799-15.906c2.54-5.001,6.321-8.414,11.309-10.215c4.899-1.768,9.971-1.608,15.232,0.489
			C587.817,400.073,591.785,404.583,594.464,411.507L594.464,411.507z M585.202,408.963c-1.423-2.376-3.599-4.208-6.504-5.499
			c-2.903-1.291-5.929-1.375-9.065-0.243c-2.868,1.035-4.973,2.854-6.326,5.452c-1.367,2.614-1.729,5.476-1.113,8.594
			L585.202,408.963L585.202,408.963z M619.342,396.6l22.585-8.152l2.588,7.162l-22.586,8.151L619.342,396.6z"/>
	</g>
	<polygon fill="#333333" points="301.827,413.643 555.057,322.254 558.073,330.658 304.839,422.045 	"/>
	<polygon fill="#333333" points="329.354,734.486 743.5,585.019 746.512,593.42 332.365,742.891 	"/>
	<path fill="#333333" d="M192.474,300.998l11.759-65.123h-11.062l1.962-10.873h67.789l-4.723,26.157h-10.806l2.76-15.283h-32.738
		l-4.646,25.729h28.213l-1.96,10.85h-28.208l-5.154,28.544h11.191l-1.962,10.87h-35.44l1.963-10.87L192.474,300.998L192.474,300.998
		z M334.7,276.524c-3.694,7.995-8.706,14.133-15.019,18.459c-6.309,4.305-12.83,6.461-19.559,6.461
		c-8.212,0-14.747-3.112-19.608-9.317c-4.881-6.202-6.418-14.196-4.651-23.979c1.72-9.527,5.931-17.415,12.654-23.66
		c6.725-6.246,14.429-9.38,23.132-9.38c5.789,0,11.016,1.557,15.688,4.669c4.671,3.09,7.759,7.481,9.247,13.13h11.298l5.038-27.905
		h-11.297l-1.431,7.931c-6.664-6.205-15.729-9.316-27.154-9.316c-12.928,0-24.171,4.093-33.684,12.258
		c-9.511,8.143-15.501,19.121-17.993,32.91c-2.267,12.556-0.185,23.108,6.269,31.656c6.478,8.525,16.321,12.789,29.55,12.789
		c10.098,0,19.494-2.643,28.211-7.952c8.741-5.307,15.237-12.79,19.532-22.447L334.7,276.524z"/>
	<path fill="#333333" d="M567.212,798.104l9.519-46.172h-7.448l1.586-7.707h47.889l-3.825,18.545h-7.124l2.235-10.838h-24.604
		l-3.771,18.318h21.404l-1.587,7.707h-21.408l-4.152,20.145h24.6l2.31-11.194h7.128l-3.896,18.905h-47.89l1.59-7.709H567.212
		L567.212,798.104z M616.167,805.812h10.181l2.246-10.896h-10.181L616.167,805.812L616.167,805.812z M653.284,806.432l-1.579-54.5
		h-7.124l1.589-7.707h22.749l-1.591,7.707h-6.675l-0.393,41.353l29.353-41.353h-6.72l1.59-7.707h22.125l-1.587,7.707h-6.997
		l-36.738,54.5H653.284L653.284,806.432z M685.714,805.812h10.181l2.246-10.896h-10.18L685.714,805.812z"/>
</g>
</svg>
