<svg id="page-title" viewBox="0 0 481.991 70"><path d="M55,37.9H15V70H0V10c0-2.733,0.983-5.083,2.95-7.05C4.916,0.984,7.266,0,10,0h45v13.9H15V24h40V37.9z"/><path d="M115.999,70h-45c-2.734,0-5.084-0.982-7.05-2.95c-1.967-1.965-2.95-4.315-2.95-7.05V10c0-2.733,0.983-5.083,2.95-7.05C65.914,0.984,68.264,0,70.999,0h45v13.9h-40v42.2h40V70z"/><path d="M206.997,60c0,2.734-0.984,5.084-2.95,7.05c-1.967,1.968-4.317,2.95-7.05,2.95h-40c-2.734,0-5.084-0.982-7.05-2.95c-1.967-1.965-2.95-4.315-2.95-7.05V10c0-2.733,0.983-5.083,2.95-7.05c1.965-1.966,4.315-2.95,7.05-2.95h40c2.733,0,5.083,0.984,7.05,2.95c1.966,1.967,2.95,4.317,2.95,7.05V60z M191.997,56.1V13.9h-30v42.2H191.997z"/><path d="M272.996,70h-15l-30-41.997V70h-15V0h15.031l29.969,41.956V0h15V70z"/><path d="M333.995,70h-45c-2.734,0-5.084-0.982-7.05-2.95c-1.967-1.965-2.95-4.315-2.95-7.05V0h15v56.1h40V70z"/><path d="M354.993,70h-15V0h15V70z"/><path d="M420.992,70h-15l-30-41.997V70h-15V0h15.031l29.969,41.956V0h15V70z"/><path d="M481.991,70h-45c-2.734,0-5.084-0.982-7.05-2.95c-1.968-1.965-2.95-4.315-2.95-7.05V10c0-2.733,0.982-5.083,2.95-7.05c1.966-1.966,4.315-2.95,7.05-2.95h45v13.9h-40V24h40v13.9h-40v18.2h40V70z"/></svg>